<svg width="16" height="16" xmlns="http://www.w3.org/2000/svg" class="bi bi-house-door">
 <g>
  <title>background</title>
  <rect x="-1" y="-1" width="2.380949" height="2.380949" id="canvas_background" fill="none"/>
 </g>

 <g>
  <title>Layer 1</title>
  <path stroke="null" fill="#ffffff" d="m8.435786,0.116712a0.615517,0.57416 0 0 0 -0.871572,0l-7.386201,6.889918a0.615517,0.57416 0 0 0 -0.179731,0.406505l0,8.038237a0.615517,0.57416 0 0 0 0.615517,0.57416l5.53965,0a0.615517,0.57416 0 0 0 0.615517,-0.57416l0,-4.593279l2.462067,0l0,4.593279a0.615517,0.57416 0 0 0 0.615517,0.57416l5.53965,0a0.615517,0.57416 0 0 0 0.615517,-0.57416l0,-8.038237a0.615517,0.57416 0 0 0 -0.179731,-0.406505l-1.66682,-1.553676l0,-3.781417a0.615517,0.57416 0 0 0 -0.615517,-0.57416l-1.231034,0a0.615517,0.57416 0 0 0 -0.615517,0.57416l0,1.484778l-3.257315,-3.039602l0.000001,-0.000001zm-7.20647,14.760501l0,-7.226376l6.770684,-6.315759l6.770684,6.315759l0,7.226376l-4.308618,0l0,-4.593279a0.615517,0.57416 0 0 0 -0.615517,-0.57416l-3.693101,0a0.615517,0.57416 0 0 0 -0.615517,0.57416l0,4.593279l-4.308618,0l0.000002,0z" id="svg_1"/>
 </g>
</svg>