<svg width="16" height="16" xmlns="http://www.w3.org/2000/svg" class="bi bi-house-door">

 <g>
  <title>background</title>
  <rect fill="none" id="canvas_background" height="18" width="18" y="-1" x="-1"/>
 </g>
 <g>
  <title>Layer 1</title>
  <path stroke="null" id="svg_1" d="m8.434395,0.166993a0.613552,0.571423 0 0 0 -0.86879,0l-7.362623,6.85708a0.613552,0.571423 0 0 0 -0.179157,0.404568l0,7.999926a0.613552,0.571423 0 0 0 0.613552,0.571423l5.521967,0a0.613552,0.571423 0 0 0 0.613552,-0.571423l0,-4.571387l2.454208,0l0,4.571387a0.613552,0.571423 0 0 0 0.613552,0.571423l5.521967,0a0.613552,0.571423 0 0 0 0.613552,-0.571423l0,-7.999926a0.613552,0.571423 0 0 0 -0.179157,-0.404568l-1.661499,-1.546271l0,-3.763394a0.613552,0.571423 0 0 0 -0.613552,-0.571423l-1.227104,0a0.613552,0.571423 0 0 0 -0.613552,0.571423l0,1.477701l-3.246917,-3.025115zm-7.183466,14.690151l0,-7.191934l6.749071,-6.285657l6.749071,6.285657l0,7.191934l-4.294864,0l0,-4.571387a0.613552,0.571423 0 0 0 -0.613552,-0.571423l-3.681312,0a0.613552,0.571423 0 0 0 -0.613552,0.571423l0,4.571387l-4.294864,0z"/>
 </g>
</svg>